<svg viewBox="0 0 900 550" width="100%" xmlns="http://www.w3.org/2000/svg" version="1.1" className="absolute right-0 bottom-0"><path d="M0 430L21.5 423.3C43 416.7 86 403.3 128.8 403.7C171.7 404 214.3 418 257.2 424.3C300 430.7 343 429.3 385.8 427.7C428.7 426 471.3 424 514.2 413.5C557 403 600 384 642.8 375.5C685.7 367 728.3 369 771.2 380C814 391 857 411 878.5 421L900 431L900 601L878.5 601C857 601 814 601 771.2 601C728.3 601 685.7 601 642.8 601C600 601 557 601 514.2 601C471.3 601 428.7 601 385.8 601C343 601 300 601 257.2 601C214.3 601 171.7 601 128.8 601C86 601 43 601 21.5 601L0 601Z" fill="#1364ad"></path><path d="M0 417L21.5 425.2C43 433.3 86 449.7 128.8 449.5C171.7 449.3 214.3 432.7 257.2 424C300 415.3 343 414.7 385.8 422.7C428.7 430.7 471.3 447.3 514.2 449.8C557 452.3 600 440.7 642.8 437.5C685.7 434.3 728.3 439.7 771.2 448.2C814 456.7 857 468.3 878.5 474.2L900 480L900 601L878.5 601C857 601 814 601 771.2 601C728.3 601 685.7 601 642.8 601C600 601 557 601 514.2 601C471.3 601 428.7 601 385.8 601C343 601 300 601 257.2 601C214.3 601 171.7 601 128.8 601C86 601 43 601 21.5 601L0 601Z" fill="#11599a"></path><path d="M0 472L21.5 475.7C43 479.3 86 486.7 128.8 485C171.7 483.3 214.3 472.7 257.2 472.2C300 471.7 343 481.3 385.8 477.8C428.7 474.3 471.3 457.7 514.2 450.3C557 443 600 445 642.8 447.8C685.7 450.7 728.3 454.3 771.2 457.8C814 461.3 857 464.7 878.5 466.3L900 468L900 601L878.5 601C857 601 814 601 771.2 601C728.3 601 685.7 601 642.8 601C600 601 557 601 514.2 601C471.3 601 428.7 601 385.8 601C343 601 300 601 257.2 601C214.3 601 171.7 601 128.8 601C86 601 43 601 21.5 601L0 601Z" fill="#104f88"></path><path d="M0 540L21.5 532.5C43 525 86 510 128.8 507C171.7 504 214.3 513 257.2 519.5C300 526 343 530 385.8 523.5C428.7 517 471.3 500 514.2 494.3C557 488.7 600 494.3 642.8 495.8C685.7 497.3 728.3 494.7 771.2 494C814 493.3 857 494.7 878.5 495.3L900 496L900 601L878.5 601C857 601 814 601 771.2 601C728.3 601 685.7 601 642.8 601C600 601 557 601 514.2 601C471.3 601 428.7 601 385.8 601C343 601 300 601 257.2 601C214.3 601 171.7 601 128.8 601C86 601 43 601 21.5 601L0 601Z" fill="#0f4576"></path><path d="M0 569L21.5 569.2C43 569.3 86 569.7 128.8 566.8C171.7 564 214.3 558 257.2 550.7C300 543.3 343 534.7 385.8 537.5C428.7 540.3 471.3 554.7 514.2 559.5C557 564.3 600 559.7 642.8 559.8C685.7 560 728.3 565 771.2 568.2C814 571.3 857 572.7 878.5 573.3L900 574L900 601L878.5 601C857 601 814 601 771.2 601C728.3 601 685.7 601 642.8 601C600 601 557 601 514.2 601C471.3 601 428.7 601 385.8 601C343 601 300 601 257.2 601C214.3 601 171.7 601 128.8 601C86 601 43 601 21.5 601L0 601Z" fill="#0f3b64"></path></svg>